<?xml version="1.0" encoding="utf-8"?>
<!-- Generator: Adobe Illustrator 16.0.0, SVG Export Plug-In . SVG Version: 6.00 Build 0)  -->
<!DOCTYPE svg PUBLIC "-//W3C//DTD SVG 1.1//EN" "http://www.w3.org/Graphics/SVG/1.1/DTD/svg11.dtd">
<svg version="1.1" id="Layer_1" xmlns="http://www.w3.org/2000/svg" xmlns:xlink="http://www.w3.org/1999/xlink" x="0px" y="0px"
	 width="1600.876px" height="303.687px" viewBox="0 0 1600.876 303.687" enable-background="new 0 0 1600.876 303.687"
	 xml:space="preserve">
<line fill="#0094E9" stroke="#000000" stroke-miterlimit="10" x1="647.336" y1="130.912" x2="647.336" y2="130.912"/>
<g>
	<path fill="#1A1A1A" stroke="#1A1A1A" stroke-width="5" stroke-miterlimit="10" d="M284.411,49.738l48.73,140.936h0.788
		l49.124-140.936h50.175V240.98h-38.354v-57.006l3.678-84.456l-0.788-0.131L346.539,240.98h-25.744L269.832,99.913l-0.788,0.131
		l3.678,83.931v57.006h-38.354V49.738H284.411z"/>
	<path fill="#1A1A1A" stroke="#1A1A1A" stroke-width="5" stroke-miterlimit="10" d="M460.024,168.607
		c0-21.189,5.91-38.55,17.731-52.08C489.577,103,505.95,96.235,526.879,96.235c21.016,0,37.478,6.744,49.387,20.228
		c11.907,13.486,17.863,30.867,17.863,52.145v2.758c0,21.367-5.934,38.771-17.798,52.211
		c-11.866,13.443-28.262,20.162-49.189,20.162c-21.016,0-37.457-6.719-49.321-20.162c-11.866-13.439-17.797-30.844-17.797-52.211
		V168.607z M498.246,171.298c0,12.942,2.276,23.325,6.83,31.149c4.552,7.826,11.907,11.738,22.066,11.738
		c9.895,0,17.141-3.936,21.738-11.803c4.597-7.869,6.896-18.231,6.896-31.085v-2.754c0-12.589-2.321-22.863-6.961-30.82
		c-4.643-7.957-11.953-11.936-21.936-11.936c-9.896,0-17.141,4.002-21.738,12.002c-4.597,8-6.896,18.251-6.896,30.754V171.298z"/>
	<path fill="#1A1A1A" stroke="#1A1A1A" stroke-width="5" stroke-miterlimit="10" d="M652.842,98.862l1.707,20.359
		c4.729-7.267,10.551-12.915,17.469-16.944c6.917-4.027,14.667-6.042,23.249-6.042c14.361,0,25.568,4.511,33.625,13.529
		c8.057,9.02,12.084,23.162,12.084,42.426v88.791h-38.484v-88.863c0-9.566-1.928-16.345-5.779-20.338
		c-3.854-3.994-9.676-5.991-17.469-5.991c-5.08,0-9.634,1.032-13.661,3.095c-4.028,2.063-7.4,4.981-10.113,8.753V240.98h-38.354
		V98.862H652.842z"/>
	<path fill="#1A1A1A" stroke="#1A1A1A" stroke-width="5" stroke-miterlimit="10" d="M763.7,168.607c0-21.189,5.91-38.55,17.73-52.08
		c11.822-13.528,28.195-20.293,49.125-20.293c21.016,0,37.477,6.744,49.387,20.228c11.906,13.486,17.863,30.867,17.863,52.145v2.758
		c0,21.367-5.934,38.771-17.799,52.211c-11.865,13.443-28.262,20.162-49.189,20.162c-21.016,0-37.457-6.719-49.32-20.162
		c-11.867-13.439-17.797-30.844-17.797-52.211V168.607z M801.921,171.298c0,12.942,2.277,23.325,6.83,31.149
		c4.553,7.826,11.908,11.738,22.066,11.738c9.895,0,17.141-3.936,21.738-11.803c4.598-7.869,6.896-18.231,6.896-31.085v-2.754
		c0-12.589-2.322-22.863-6.961-30.82c-4.643-7.957-11.953-11.936-21.936-11.936c-9.896,0-17.141,4.002-21.738,12.002
		s-6.896,18.251-6.896,30.754V171.298z"/>
	<path fill="#1A1A1A" stroke="#1A1A1A" stroke-width="5" stroke-miterlimit="10" d="M998.286,201.838
		c0-4.203-2.035-7.836-6.107-10.901c-4.072-3.063-11.625-5.779-22.658-8.144c-16.813-3.415-29.486-8.473-38.025-15.17
		c-8.537-6.699-12.805-15.828-12.805-27.387c0-12.258,5.143-22.658,15.432-31.195c10.289-8.538,24.059-12.807,41.311-12.807
		c18.125,0,32.551,4.248,43.277,12.741c10.727,8.495,15.871,19.222,15.434,32.18l-0.262,0.788h-37.041
		c0-5.691-1.818-10.332-5.451-13.923c-3.635-3.589-8.953-5.385-15.957-5.385c-6.219,0-11.1,1.51-14.646,4.532
		c-3.547,3.021-5.318,6.809-5.318,11.361c0,4.379,1.859,7.969,5.582,10.77c3.721,2.804,11.273,5.299,22.656,7.487
		c17.514,3.503,30.516,8.648,39.012,15.433c8.492,6.787,12.74,16.136,12.74,28.043c0,12.787-5.475,23.229-16.418,31.326
		c-10.947,8.102-25.396,12.15-43.346,12.15c-18.914,0-33.867-4.795-44.855-14.383c-10.99-9.588-16.221-20.51-15.695-32.771
		l0.262-0.787h35.07c0.264,7.617,2.758,13.135,7.486,16.549c4.729,3.416,10.902,5.123,18.521,5.123c7.092,0,12.498-1.4,16.221-4.203
		C996.425,210.465,998.286,206.654,998.286,201.838z"/>
	<path fill="#1A1A1A" stroke="#1A1A1A" stroke-width="5" stroke-miterlimit="10" d="M1188.347,173.861
		c0,21.016-4.859,37.916-14.58,50.701c-9.719,12.785-23.293,19.176-40.717,19.176c-7.445,0-14.055-1.379-19.834-4.137
		c-5.779-2.76-10.729-6.809-14.842-12.15v68.17h-38.223V98.862h34.545l2.232,16.813c4.203-6.216,9.26-11.011,15.17-14.383
		c5.91-3.37,12.807-5.057,20.688-5.057c17.602,0,31.262,6.875,40.98,20.622c9.721,13.749,14.58,31.831,14.58,54.247V173.861z
		 M1149.993,170.908c0-13.418-2.232-24.291-6.699-32.624c-4.465-8.331-11.295-12.497-20.49-12.497
		c-5.779,0-10.705,1.184-14.777,3.553c-4.07,2.368-7.289,5.744-9.652,10.128v62.352c2.363,4.035,5.582,7.104,9.652,9.209
		c4.072,2.105,9.084,3.156,15.041,3.156c9.279,0,16.09-3.639,20.424-10.918c4.334-7.277,6.502-17.144,6.502-29.598V170.908z"/>
	<path fill="#1A1A1A" stroke="#1A1A1A" stroke-width="5" stroke-miterlimit="10" d="M1295.396,240.98
		c-1.402-3.238-2.607-6.654-3.613-10.246c-1.008-3.59-1.73-7.268-2.166-11.033c-3.941,6.918-9.129,12.654-15.566,17.207
		c-6.436,4.553-14.119,6.83-23.051,6.83c-14.887,0-26.357-3.83-34.412-11.492c-8.059-7.662-12.084-18.104-12.084-31.326
		c0-13.924,5.361-24.715,16.09-32.379c10.725-7.66,26.377-11.492,46.957-11.492h21.408v-11.296c0-6.83-1.795-12.127-5.385-15.893
		c-3.592-3.764-8.889-5.648-15.893-5.648c-6.219,0-11.014,1.51-14.383,4.532c-3.373,3.021-5.057,7.203-5.057,12.543l-37.041-0.131
		l-0.131-0.788c-0.613-11.996,4.598-22.35,15.631-31.063c11.033-8.712,25.523-13.069,43.477-13.069
		c16.986,0,30.777,4.314,41.373,12.938c10.594,8.626,15.895,20.907,15.895,36.843v58.713c0,6.654,0.502,12.916,1.51,18.783
		c1.006,5.867,2.604,11.689,4.795,17.469H1295.396z M1260.325,215.367c6.742,0,12.74-1.662,17.994-4.99s8.801-7.18,10.639-11.559
		v-20.098h-21.408c-8.145,0-14.318,2.037-18.521,6.107c-4.203,4.072-6.305,8.998-6.305,14.777c0,4.729,1.576,8.537,4.729,11.428
		C1250.604,213.922,1254.894,215.367,1260.325,215.367z"/>
	<path fill="#1A1A1A" stroke="#1A1A1A" stroke-width="5" stroke-miterlimit="10" d="M1431.208,131.83l-14.055-0.394
		c-5.693,0-10.375,1.182-14.053,3.546s-6.482,5.693-8.406,9.982v96.016h-38.223V98.862h35.596l1.707,21.016
		c3.326-7.442,7.639-13.244,12.938-17.403c5.297-4.158,11.404-6.239,18.322-6.239c1.926,0,3.699,0.154,5.32,0.46
		c1.619,0.308,3.262,0.679,4.926,1.116L1431.208,131.83z"/>
	<path fill="#1A1A1A" stroke="#1A1A1A" stroke-width="5" stroke-miterlimit="10" d="M1499.509,181.479h-10.508v59.501h-38.354
		V36.078h38.354V152.32h9.457l32.969-53.458h44.395l-45.445,64.361l52.406,77.758h-44L1499.509,181.479z"/>
</g>
<g>
	<radialGradient id="SVGID_1_" cx="95.8042" cy="92.1011" r="88.5167" fx="98.1265" fy="92.3148" gradientUnits="userSpaceOnUse">
		<stop  offset="0.5" style="stop-color:#FFFFFF"/>
		<stop  offset="0.5873" style="stop-color:#F6FCFF"/>
		<stop  offset="0.7325" style="stop-color:#DCF5FF"/>
		<stop  offset="0.9165" style="stop-color:#B3E9FF"/>
		<stop  offset="1" style="stop-color:#9EE3FF"/>
	</radialGradient>
	<path fill="url(#SVGID_1_)" d="M93.814,9.902c-45.34,0.456-81.948,35.614-81.948,78.927c0,0-0.881,20.574,14.542,45.347
		c15.422,24.771,28.354,38.756,29.235,53.031c0,0,0.25,2.291,0,12.813c0,0,29.873-0.326,74.211,0
		c0.408-8.111,0.541-10.842,0.541-10.842c0.881-14.273,15.383-30.23,30.805-55.002c15.424-24.773,14.543-45.347,14.543-45.347
		c0-43.313-36.609-78.471-81.947-78.927"/>
	<g>
		<path fill="#1A1A1A" d="M93.814,7.402C49.514,8.205,10.589,42.123,9.378,87.463c-0.508,19.047,7.955,37.233,17.988,52.894
			c10.206,15.932,25.871,32.091,25.888,52.028c0.003,2.545-0.055,5.09-0.11,7.634c-0.029,1.352,1.159,2.515,2.5,2.5
			c24.734-0.267,49.477-0.178,74.211,0c1.414,0.01,2.432-1.147,2.5-2.5c0.439-8.747,0.73-15.925,4.769-23.945
			c5.782-11.488,13.96-21.824,21.032-32.522c10.51-15.898,20.65-34.965,20.089-54.691c-0.604-21.264-8.4-40.665-23.318-55.967
			C139.644,17.216,118.342,8.571,96.647,7.477c-0.95-0.04-1.9-0.065-2.852-0.075c-3.227-0.059-3.221,4.941,0,5
			c42.34,0.767,79.891,33.918,79.453,77.533c-0.227,22.507-13.231,42.116-25.403,60.017c-6.186,9.098-13.162,18.206-17.299,28.485
			c-2.843,7.064-2.815,14.091-3.192,21.583c0.833-0.833,1.667-1.667,2.5-2.5c-24.734-0.178-49.477-0.267-74.211,0
			c0.833,0.833,1.667,1.667,2.5,2.5c0.15-6.854,0.563-13.667-1.387-20.313c-2.787-9.506-9.064-17.97-14.533-26.067
			c-12.919-19.126-26.858-38.96-27.842-62.869c-1.807-43.933,37.433-77.607,79.433-78.369C97.035,12.344,97.041,7.343,93.814,7.402
			L93.814,7.402z"/>
	</g>
</g>
<g>
	<polygon fill="#FFDB00" points="117.657,40.451 101.63,84.996 131.229,84.988 69.384,148.846 83.618,103.38 56.783,103.427 	"/>
	<g>
		<path fill="#1A1A1A" d="M115.247,39.786c-5.342,14.849-10.685,29.697-16.027,44.545c-0.558,1.55,0.88,3.165,2.411,3.165
			c9.867-0.002,19.733-0.005,29.6-0.008c-0.589-1.422-1.179-2.845-1.768-4.268c-20.615,21.286-41.23,42.571-61.846,63.857
			c1.393,0.811,2.786,1.621,4.178,2.433c4.745-15.156,9.49-30.311,14.234-45.466c0.488-1.559-0.828-3.167-2.411-3.165
			c-8.945,0.016-17.89,0.031-26.835,0.047c0.589,1.422,1.179,2.845,1.768,4.268c20.292-20.992,40.583-41.984,60.874-62.976
			c2.241-2.318-1.291-5.857-3.535-3.535c-20.292,20.992-40.583,41.984-60.874,62.976c-1.504,1.555-0.442,4.271,1.768,4.268
			c8.945-0.016,17.89-0.031,26.835-0.047c-0.804-1.055-1.607-2.11-2.411-3.165c-4.745,15.155-9.49,30.311-14.234,45.465
			c-0.752,2.404,2.462,4.205,4.178,2.433c20.615-21.286,41.23-42.571,61.846-63.857c1.507-1.556,0.439-4.268-1.768-4.268
			c-9.867,0.002-19.733,0.005-29.6,0.008c0.804,1.055,1.607,2.11,2.411,3.165c5.342-14.849,10.685-29.697,16.027-44.545
			C121.162,38.074,116.33,36.776,115.247,39.786z"/>
	</g>
</g>
<g>
	<polygon fill="#1A1A1A" points="129.876,211.568 56.055,218.672 55.644,200.402 129.876,200.402 	"/>
	<g>
		<path fill="#1A1A1A" d="M129.854,209.068c-24.604,2.304-49.207,4.608-73.811,6.912c0.833,0.833,1.667,1.667,2.5,2.5
			c-0.133-6.153-0.267-12.308-0.4-18.461c-0.833,0.833-1.667,1.667-2.5,2.5c24.737,0,49.474,0,74.211,0
			c-0.833-0.833-1.667-1.667-2.5-2.5c0,3.85,0,7.699,0,11.549c0,3.225,5,3.225,5,0c0-3.85,0-7.699,0-11.549
			c0-1.363-1.137-2.5-2.5-2.5c-24.737,0-49.474,0-74.211,0c-1.34,0-2.53,1.137-2.5,2.5c0.133,6.153,0.267,12.308,0.4,18.461
			c0.027,1.265,1.12,2.629,2.5,2.5c24.604-2.304,49.207-4.608,73.811-6.912C133.036,213.771,133.065,208.768,129.854,209.068z"/>
	</g>
</g>
<g>
	<polygon fill="#1A1A1A" points="55.876,251.93 129.57,244.979 129.854,263.402 55.876,263.402 	"/>
	<g>
		<path fill="#1A1A1A" d="M55.644,254.43c24.604-2.304,49.207-4.608,73.811-6.912c-0.833-0.833-1.667-1.667-2.5-2.5
			c0.133,6.154,0.267,12.309,0.4,18.463c0.833-0.833,1.667-1.667,2.5-2.5c-24.737,0-49.474,0-74.211,0
			c0.833,0.833,1.667,1.667,2.5,2.5c0-3.851,0-7.7,0-11.551c0-3.225-5-3.225-5,0c0,3.851,0,7.7,0,11.551c0,1.363,1.137,2.5,2.5,2.5
			c24.737,0,49.474,0,74.211,0c1.34,0,2.53-1.137,2.5-2.5c-0.133-6.154-0.267-12.309-0.4-18.463c-0.027-1.265-1.12-2.629-2.5-2.5
			c-24.604,2.304-49.207,4.608-73.811,6.912C52.462,249.728,52.433,254.73,55.644,254.43z"/>
	</g>
</g>
<g>
	<polygon fill="#1A1A1A" points="129.876,233.139 55.876,240.402 55.876,230.402 129.876,222.814 	"/>
	<g>
		<path fill="#1A1A1A" d="M129.854,230.639c-24.737,2.421-49.474,4.843-74.211,7.264c0.833,0.833,1.667,1.667,2.5,2.5
			c0-3.333,0-6.667,0-10c-0.833,0.833-1.667,1.667-2.5,2.5c24.737-2.529,49.474-5.059,74.211-7.588
			c-0.833-0.833-1.667-1.667-2.5-2.5c0,3.441,0,6.883,0,10.324c0,3.225,5,3.225,5,0c0-3.441,0-6.883,0-10.324
			c0-1.258-1.142-2.639-2.5-2.5c-24.737,2.529-49.474,5.059-74.211,7.588c-1.355,0.139-2.5,1.032-2.5,2.5c0,3.333,0,6.667,0,10
			c0,1.262,1.141,2.633,2.5,2.5c24.737-2.421,49.474-4.843,74.211-7.264C133.033,235.327,133.063,230.324,129.854,230.639z"/>
	</g>
</g>
<g>
	<rect x="79.876" y="265.402" fill="#1A1A1A" width="26" height="6"/>
	<g>
		<path fill="#1A1A1A" d="M105.567,269.234c-8.645,0-17.291,0-25.936,0c0.833,0.833,1.667,1.667,2.5,2.5c0-2.11,0-4.222,0-6.332
			c-0.833,0.833-1.667,1.667-2.5,2.5c8.645,0,17.291,0,25.936,0c-0.833-0.833-1.667-1.667-2.5-2.5c0,2.11,0,4.222,0,6.332
			c0,3.225,5,3.225,5,0c0-2.11,0-4.222,0-6.332c0-1.363-1.137-2.5-2.5-2.5c-8.645,0-17.291,0-25.936,0c-1.363,0-2.5,1.137-2.5,2.5
			c0,2.11,0,4.222,0,6.332c0,1.363,1.137,2.5,2.5,2.5c8.645,0,17.291,0,25.936,0C108.792,274.234,108.792,269.234,105.567,269.234z"
			/>
	</g>
</g>
</svg>
